<?xml version="1.0" encoding="UTF-8"?><svg xmlns="http://www.w3.org/2000/svg" xmlns:xlink="http://www.w3.org/1999/xlink" width="127.5" zoomAndPan="magnify" viewBox="0 0 127.5 127.499994" height="127.499994" preserveAspectRatio="xMidYMid meet" version="1.0"><defs><filter x="0%" y="0%" width="100%" xmlns:xlink="http://www.w3.org/1999/xlink" xlink:type="simple" xlink:actuate="onLoad" height="100%" id="filter-remove-color" xlink:show="other"><feColorMatrix values="0 0 0 0 1 0 0 0 0 1 0 0 0 0 1 0 0 0 1 0" color-interpolation-filters="sRGB"/></filter><mask id="mask-0"><g filter="url(#filter-remove-color)"><rect x="-12.75" width="153" fill="rgb(0%, 0%, 0%)" y="-12.749999" height="152.999993" fill-opacity="0.098"/></g></mask><clipPath id="clip-0"><path d="M 0 0 L 127 0 L 127 127 L 0 127 Z M 0 0 " clip-rule="nonzero"/></clipPath><clipPath id="clip-1"><rect x="0" width="127" y="0" height="127"/></clipPath><clipPath id="clip-2"><path d="M 45 44 L 83 44 L 83 87.078125 L 45 87.078125 Z M 45 44 " clip-rule="nonzero"/></clipPath><clipPath id="clip-3"><path d="M 38.25 40.578125 L 89 40.578125 L 89 80 L 38.25 80 Z M 38.25 40.578125 " clip-rule="nonzero"/></clipPath></defs><g mask="url(#mask-0)"><g transform="matrix(1, 0, 0, 1, 0, 0.000000000000007293)"><g id="source-5" clip-path="url(#clip-1)"><g clip-path="url(#clip-0)"><path fill="rgb(0%, 29.019165%, 67.83905%)" d="M 63.75 0 C 28.542969 0 0 28.542969 0 63.75 C 0 98.957031 28.542969 127.5 63.75 127.5 C 98.957031 127.5 127.5 98.957031 127.5 63.75 C 127.5 28.542969 98.957031 0 63.75 0 Z M 63.75 0 " fill-opacity="1" fill-rule="nonzero"/></g></g></g></g><path fill="rgb(0%, 29.019165%, 67.83905%)" d="M 73.972656 66.855469 C 74.34375 67.253906 74.328125 67.878906 73.933594 68.257812 C 73.542969 68.636719 72.910156 68.625 72.523438 68.238281 C 72.355469 68.066406 70.777344 66.597656 68.140625 68.375 C 67.96875 68.488281 67.773438 68.542969 67.582031 68.542969 C 67.261719 68.542969 66.945312 68.386719 66.753906 68.097656 C 66.445312 67.640625 66.566406 67.019531 67.027344 66.707031 C 70.324219 64.484375 73.007812 65.828125 73.972656 66.855469 Z M 73.972656 66.855469 " fill-opacity="1" fill-rule="nonzero"/><path fill="rgb(0%, 29.019165%, 67.83905%)" d="M 60.476562 66.707031 C 60.933594 67.019531 61.058594 67.640625 60.75 68.101562 C 60.554688 68.390625 60.242188 68.546875 59.917969 68.546875 C 59.726562 68.546875 59.53125 68.492188 59.363281 68.375 C 56.726562 66.605469 55.15625 68.058594 54.980469 68.238281 C 54.597656 68.632812 53.972656 68.648438 53.574219 68.273438 C 53.167969 67.894531 53.152344 67.257812 53.53125 66.855469 C 54.488281 65.828125 57.175781 64.484375 60.476562 66.707031 Z M 60.476562 66.707031 " fill-opacity="1" fill-rule="nonzero"/><g clip-path="url(#clip-2)"><path fill="rgb(0%, 29.019165%, 67.83905%)" d="M 55 78.609375 C 57.457031 81.898438 60.5 84.09375 63.75 84.09375 C 70.78125 84.09375 76.890625 73.871094 78.035156 64.300781 C 76.089844 63.699219 67.03125 65.492188 56.742188 56.128906 C 56.742188 56.128906 53.882812 60.964844 49.3125 62.597656 C 49.519531 66.199219 50.488281 69.980469 51.976562 73.359375 C 50.425781 72.589844 49.035156 71.765625 47.886719 71.007812 C 47.886719 70.992188 47.714844 70.410156 47.632812 70.132812 C 46.757812 67.167969 46.261719 64.105469 46.261719 61.191406 C 46.257812 50.675781 52.636719 44.640625 63.75 44.640625 C 74.863281 44.640625 81.238281 50.671875 81.238281 61.191406 C 81.238281 64.378906 80.644531 67.75 79.609375 70.96875 C 79.785156 73.753906 80.34375 79.761719 82.070312 84.589844 C 82.070312 84.589844 77.765625 84.578125 72.09375 83.457031 C 69.617188 85.714844 66.773438 87.101562 63.75 87.101562 C 60.722656 87.101562 57.882812 85.714844 55.402344 83.457031 C 49.734375 84.578125 45.425781 84.589844 45.425781 84.589844 C 46.539062 81.476562 47.160156 77.902344 47.511719 74.996094 C 49.53125 76.269531 52.105469 77.648438 55 78.609375 Z M 55 78.609375 " fill-opacity="1" fill-rule="nonzero"/></g><g clip-path="url(#clip-3)"><path fill="rgb(0%, 29.019165%, 67.83905%)" d="M 85.199219 56.671875 C 83.804688 47.472656 74.898438 40.578125 63.75 40.578125 C 52.601562 40.578125 43.691406 47.472656 42.296875 56.671875 C 40.445312 57.417969 38.414062 59.421875 38.960938 64.699219 C 39.566406 70.5 42.40625 71.519531 44.480469 71.679688 C 46.910156 73.582031 53.078125 77.875 60.117188 78.714844 C 60.339844 79.441406 60.988281 79.980469 61.785156 79.980469 L 64.488281 79.980469 C 65.46875 79.980469 66.265625 79.179688 66.265625 78.199219 C 66.265625 77.214844 65.46875 76.417969 64.488281 76.417969 L 61.785156 76.417969 C 61.179688 76.417969 60.667969 76.742188 60.347656 77.210938 C 53.828125 76.457031 47.929688 72.433594 45.53125 70.585938 C 45.246094 68.277344 44.636719 62.859375 44.683594 59.191406 C 44.683594 50.214844 53.058594 43.1875 63.75 43.1875 C 74.441406 43.1875 82.816406 50.214844 82.816406 59.191406 C 82.878906 63.957031 81.824219 71.703125 81.824219 71.703125 C 83.78125 71.742188 87.804688 71.730469 88.535156 64.699219 C 89.085938 59.421875 87.050781 57.417969 85.199219 56.671875 Z M 85.199219 56.671875 " fill-opacity="1" fill-rule="nonzero"/></g></svg>