<?xml version="1.0" encoding="UTF-8"?><svg xmlns="http://www.w3.org/2000/svg" xmlns:xlink="http://www.w3.org/1999/xlink" width="127.5" zoomAndPan="magnify" viewBox="0 0 127.5 127.499994" height="127.499994" preserveAspectRatio="xMidYMid meet" version="1.0"><defs><filter x="0%" y="0%" width="100%" xmlns:xlink="http://www.w3.org/1999/xlink" xlink:type="simple" xlink:actuate="onLoad" height="100%" id="filter-remove-color" xlink:show="other"><feColorMatrix values="0 0 0 0 1 0 0 0 0 1 0 0 0 0 1 0 0 0 1 0" color-interpolation-filters="sRGB"/></filter><mask id="mask-0"><g filter="url(#filter-remove-color)"><rect x="-12.75" width="153" fill="rgb(0%, 0%, 0%)" y="-12.749999" height="152.999993" fill-opacity="0.149"/></g></mask><clipPath id="clip-0"><path d="M 0 0 L 127 0 L 127 127 L 0 127 Z M 0 0 " clip-rule="nonzero"/></clipPath><clipPath id="clip-1"><rect x="0" width="127" y="0" height="127"/></clipPath><clipPath id="clip-2"><path d="M 44 38.25 L 83.988281 38.25 L 83.988281 89.25 L 44 89.25 Z M 44 38.25 " clip-rule="nonzero"/></clipPath></defs><g mask="url(#mask-0)"><g transform="matrix(1, 0, 0, 1, 0, 0.000000000000007293)"><g id="source-5" clip-path="url(#clip-1)"><g clip-path="url(#clip-0)"><path fill="rgb(54.899597%, 32.159424%, 100%)" d="M 63.75 0 C 28.542969 0 0 28.542969 0 63.75 C 0 98.957031 28.542969 127.5 63.75 127.5 C 98.957031 127.5 127.5 98.957031 127.5 63.75 C 127.5 28.542969 98.957031 0 63.75 0 Z M 63.75 0 " fill-opacity="1" fill-rule="nonzero"/></g></g></g></g><path fill="rgb(54.899597%, 32.159424%, 100%)" d="M 73.214844 39.976562 L 45.628906 61.855469 L 62.578125 64.871094 L 47.058594 87.683594 L 81.828125 57.546875 L 64.445312 56.671875 Z M 73.214844 39.976562 " fill-opacity="1" fill-rule="nonzero"/><g clip-path="url(#clip-2)"><path fill="rgb(54.899597%, 32.159424%, 100%)" d="M 72.621094 39.300781 C 69.523438 41.765625 66.429688 44.207031 63.351562 46.667969 C 58.390625 50.597656 53.429688 54.527344 48.46875 58.480469 C 47.335938 59.371094 46.183594 60.285156 45.054688 61.179688 C 44.835938 61.359375 43.503906 62.984375 44.5 63.164062 C 49.441406 64.039062 54.382812 64.929688 59.324219 65.804688 C 60.039062 65.921875 60.730469 66.0625 61.445312 66.183594 C 61.425781 65.746094 61.425781 65.308594 61.40625 64.890625 C 56.863281 71.542969 52.335938 78.210938 47.792969 84.863281 C 47.15625 85.816406 46.503906 86.75 45.867188 87.703125 C 45.609375 88.078125 45.371094 88.753906 45.90625 88.992188 C 46.460938 89.25 47.257812 88.695312 47.632812 88.355469 C 51.582031 84.960938 55.492188 81.546875 59.421875 78.152344 C 65.652344 72.753906 71.886719 67.351562 78.097656 61.953125 C 79.527344 60.703125 80.957031 59.472656 82.40625 58.222656 C 82.839844 57.84375 83.972656 56.253906 82.683594 56.195312 C 77.621094 55.9375 72.582031 55.699219 67.519531 55.441406 C 66.785156 55.402344 66.050781 55.363281 65.296875 55.324219 C 65.457031 55.660156 65.632812 55.996094 65.792969 56.316406 C 68.351562 51.433594 70.914062 46.566406 73.472656 41.683594 C 73.832031 40.988281 74.207031 40.292969 74.566406 39.621094 C 74.921875 38.945312 74.367188 38.527344 73.730469 38.667969 C 72.898438 38.84375 72.203125 39.601562 71.828125 40.335938 C 69.265625 45.21875 66.707031 50.082031 64.144531 54.964844 C 63.789062 55.660156 63.410156 56.355469 63.054688 57.03125 C 62.796875 57.507812 63.015625 58.003906 63.550781 58.023438 C 68.613281 58.28125 73.652344 58.519531 78.714844 58.777344 C 79.449219 58.816406 80.183594 58.855469 80.9375 58.894531 C 81.035156 58.222656 81.113281 57.546875 81.214844 56.871094 C 77.285156 60.285156 73.355469 63.679688 69.445312 67.09375 C 63.214844 72.496094 56.980469 77.894531 50.769531 83.292969 C 49.339844 84.546875 47.910156 85.777344 46.460938 87.027344 C 47.058594 87.246094 47.652344 87.464844 48.230469 87.683594 C 52.753906 81.011719 57.300781 74.359375 61.824219 67.691406 C 62.460938 66.738281 63.113281 65.804688 63.75 64.851562 C 63.925781 64.59375 64.304688 63.660156 63.710938 63.5625 C 58.769531 62.6875 53.824219 61.792969 48.882812 60.921875 C 48.167969 60.800781 47.476562 60.664062 46.761719 60.542969 C 46.582031 61.199219 46.382812 61.875 46.203125 62.527344 C 49.300781 60.066406 52.398438 57.625 55.492188 55.164062 C 60.453125 51.234375 65.417969 47.300781 70.378906 43.351562 C 71.507812 42.457031 72.660156 41.546875 73.792969 40.652344 C 74.207031 40.335938 75.023438 39.363281 74.546875 38.804688 C 74.070312 38.25 72.996094 39.003906 72.621094 39.300781 Z M 72.621094 39.300781 " fill-opacity="1" fill-rule="nonzero"/></g></svg>