<?xml version="1.0" encoding="UTF-8"?><svg xmlns="http://www.w3.org/2000/svg" xmlns:xlink="http://www.w3.org/1999/xlink" width="127.5" zoomAndPan="magnify" viewBox="0 0 127.5 127.499994" height="127.499994" preserveAspectRatio="xMidYMid meet" version="1.0"><defs><filter x="0%" y="0%" width="100%" xmlns:xlink="http://www.w3.org/1999/xlink" xlink:type="simple" xlink:actuate="onLoad" height="100%" id="filter-remove-color" xlink:show="other"><feColorMatrix values="0 0 0 0 1 0 0 0 0 1 0 0 0 0 1 0 0 0 1 0" color-interpolation-filters="sRGB"/></filter><mask id="mask-0"><g filter="url(#filter-remove-color)"><rect x="-12.75" width="153" fill="rgb(0%, 0%, 0%)" y="-12.749999" height="152.999993" fill-opacity="0.098"/></g></mask><clipPath id="clip-0"><path d="M 0 0 L 127 0 L 127 127 L 0 127 Z M 0 0 " clip-rule="nonzero"/></clipPath><clipPath id="clip-1"><rect x="0" width="127" y="0" height="127"/></clipPath><clipPath id="clip-2"><path d="M 46.664062 38.25 L 81.164062 38.25 L 81.164062 89.25 L 46.664062 89.25 Z M 46.664062 38.25 " clip-rule="nonzero"/></clipPath></defs><g mask="url(#mask-0)"><g transform="matrix(1, 0, 0, 1, 0, 0.000000000000007293)"><g id="source-5" clip-path="url(#clip-1)"><g clip-path="url(#clip-0)"><path fill="rgb(100%, 8.628845%, 8.628845%)" d="M 63.75 0 C 28.542969 0 0 28.542969 0 63.75 C 0 98.957031 28.542969 127.5 63.75 127.5 C 98.957031 127.5 127.5 98.957031 127.5 63.75 C 127.5 28.542969 98.957031 0 63.75 0 Z M 63.75 0 " fill-opacity="1" fill-rule="nonzero"/></g></g></g></g><g clip-path="url(#clip-2)"><path fill="rgb(100%, 8.628845%, 8.628845%)" d="M 67.609375 84.039062 C 67.609375 85.71875 67.609375 87.441406 67.609375 89.257812 C 64.980469 89.257812 62.527344 89.257812 59.902344 89.257812 C 59.902344 87.511719 59.902344 85.792969 59.902344 83.988281 C 52.597656 81.890625 47.617188 77.800781 46.726562 69.742188 C 49.578125 69.742188 52.210938 69.742188 54.996094 69.742188 C 55.644531 72.273438 56.585938 74.71875 59.683594 75.699219 C 59.683594 72.695312 59.683594 69.835938 59.683594 66.847656 C 53.320312 65.601562 47.539062 63.492188 47.347656 55.640625 C 47.203125 49.734375 51.027344 46.070312 59.769531 43.375 C 59.769531 41.746094 59.769531 40.078125 59.769531 38.25 C 62.378906 38.25 64.871094 38.25 67.53125 38.25 C 67.53125 39.9375 67.53125 41.597656 67.53125 43.363281 C 74.730469 44.917969 79.738281 48.457031 80.277344 56.457031 C 77.414062 56.457031 74.828125 56.457031 72.171875 56.457031 C 71.496094 54.152344 70.5625 52.085938 67.710938 51.582031 C 67.710938 54.375 67.710938 57 67.710938 59.609375 C 77.78125 61.886719 81.097656 64.738281 81.058594 71.035156 C 81.019531 77.429688 76.019531 82.308594 67.609375 84.039062 Z M 67.707031 68.019531 C 67.707031 70.730469 67.707031 73.285156 67.707031 75.855469 C 71.140625 75.417969 73.269531 73.710938 73.113281 71.570312 C 72.964844 69.515625 70.996094 68.191406 67.707031 68.019531 Z M 59.875 51.601562 C 56.949219 52.167969 55.574219 53.59375 55.785156 55.628906 C 55.972656 57.40625 57.34375 58.363281 59.875 58.390625 C 59.875 56.179688 59.875 53.96875 59.875 51.601562 Z M 59.875 51.601562 " fill-opacity="1" fill-rule="evenodd"/></g></svg>