<?xml version="1.0" encoding="UTF-8"?><svg xmlns="http://www.w3.org/2000/svg" xmlns:xlink="http://www.w3.org/1999/xlink" width="127.5" zoomAndPan="magnify" viewBox="0 0 127.5 127.499994" height="127.499994" preserveAspectRatio="xMidYMid meet" version="1.0"><defs><filter x="0%" y="0%" width="100%" xmlns:xlink="http://www.w3.org/1999/xlink" xlink:type="simple" xlink:actuate="onLoad" height="100%" id="filter-remove-color" xlink:show="other"><feColorMatrix values="0 0 0 0 1 0 0 0 0 1 0 0 0 0 1 0 0 0 1 0" color-interpolation-filters="sRGB"/></filter><mask id="mask-0"><g filter="url(#filter-remove-color)"><rect x="-12.75" width="153" fill="rgb(0%, 0%, 0%)" y="-12.749999" height="152.999993" fill-opacity="0.098"/></g></mask><clipPath id="clip-0"><path d="M 0 0 L 127 0 L 127 127 L 0 127 Z M 0 0 " clip-rule="nonzero"/></clipPath><clipPath id="clip-1"><rect x="0" width="127" y="0" height="127"/></clipPath><clipPath id="clip-2"><path d="M 48.671875 38.25 L 78.671875 38.25 L 78.671875 89.25 L 48.671875 89.25 Z M 48.671875 38.25 " clip-rule="nonzero"/></clipPath></defs><g mask="url(#mask-0)"><g transform="matrix(1, 0, 0, 1, 0, 0.000000000000007293)"><g id="source-5" clip-path="url(#clip-1)"><g clip-path="url(#clip-0)"><path fill="rgb(0%, 0%, 0%)" d="M 63.75 0 C 28.542969 0 0 28.542969 0 63.75 C 0 98.957031 28.542969 127.5 63.75 127.5 C 98.957031 127.5 127.5 98.957031 127.5 63.75 C 127.5 28.542969 98.957031 0 63.75 0 Z M 63.75 0 " fill-opacity="1" fill-rule="nonzero"/></g></g></g></g><g clip-path="url(#clip-2)"><path fill="rgb(0%, 0%, 0%)" d="M 72.898438 38.25 L 54.445312 38.25 C 51.265625 38.25 48.679688 40.847656 48.679688 44.046875 L 48.679688 83.453125 C 48.679688 86.652344 51.265625 89.25 54.445312 89.25 L 72.898438 89.25 C 76.082031 89.25 78.664062 86.652344 78.664062 83.453125 L 78.664062 44.046875 C 78.664062 40.847656 76.082031 38.25 72.898438 38.25 Z M 63.671875 86.933594 C 61.757812 86.933594 60.214844 85.378906 60.214844 83.453125 C 60.214844 81.53125 61.757812 79.976562 63.671875 79.976562 C 65.585938 79.976562 67.132812 81.53125 67.132812 83.453125 C 67.132812 85.378906 65.585938 86.933594 63.671875 86.933594 Z M 74.050781 77.660156 L 53.292969 77.660156 L 53.292969 45.203125 L 74.050781 45.203125 Z M 74.050781 77.660156 " fill-opacity="1" fill-rule="nonzero"/></g></svg>