<?xml version="1.0" encoding="UTF-8"?><svg xmlns="http://www.w3.org/2000/svg" xmlns:xlink="http://www.w3.org/1999/xlink" width="127.5" zoomAndPan="magnify" viewBox="0 0 127.5 127.499994" height="127.499994" preserveAspectRatio="xMidYMid meet" version="1.0"><defs><filter x="0%" y="0%" width="100%" xmlns:xlink="http://www.w3.org/1999/xlink" xlink:type="simple" xlink:actuate="onLoad" height="100%" id="filter-remove-color" xlink:show="other"><feColorMatrix values="0 0 0 0 1 0 0 0 0 1 0 0 0 0 1 0 0 0 1 0" color-interpolation-filters="sRGB"/></filter><mask id="mask-0"><g filter="url(#filter-remove-color)"><rect x="-12.75" width="153" fill="rgb(0%, 0%, 0%)" y="-12.749999" height="152.999993" fill-opacity="0.098"/></g></mask><clipPath id="clip-0"><path d="M 0 0 L 127 0 L 127 127 L 0 127 Z M 0 0 " clip-rule="nonzero"/></clipPath><clipPath id="clip-1"><rect x="0" width="127" y="0" height="127"/></clipPath><clipPath id="clip-2"><path d="M 38.25 39.429688 L 89.25 39.429688 L 89.25 88.179688 L 38.25 88.179688 Z M 38.25 39.429688 " clip-rule="nonzero"/></clipPath></defs><g mask="url(#mask-0)"><g transform="matrix(1, 0, 0, 1, 0, 0.000000000000007293)"><g id="source-5" clip-path="url(#clip-1)"><g clip-path="url(#clip-0)"><path fill="rgb(0%, 50.19989%, 21.569824%)" d="M 63.75 0 C 28.542969 0 0 28.542969 0 63.75 C 0 98.957031 28.542969 127.5 63.75 127.5 C 98.957031 127.5 127.5 98.957031 127.5 63.75 C 127.5 28.542969 98.957031 0 63.75 0 Z M 63.75 0 " fill-opacity="1" fill-rule="nonzero"/></g></g></g></g><g clip-path="url(#clip-2)"><path fill="rgb(0%, 50.19989%, 21.569824%)" d="M 56.371094 74.582031 L 79.300781 74.582031 C 79.800781 74.578125 80.285156 74.496094 80.757812 74.332031 C 81.230469 74.167969 81.667969 73.929688 82.0625 73.625 C 82.457031 73.316406 82.792969 72.953125 83.070312 72.535156 C 83.34375 72.117188 83.546875 71.667969 83.675781 71.183594 L 88.996094 51.5625 C 89.078125 51.222656 89.007812 50.917969 88.792969 50.640625 C 88.570312 50.394531 88.292969 50.257812 87.964844 50.230469 L 48.578125 50.230469 L 45.882812 40.289062 C 45.820312 40.054688 45.695312 39.867188 45.5 39.722656 C 45.308594 39.578125 45.089844 39.511719 44.847656 39.519531 L 38.320312 39.519531 L 38.320312 41.671875 L 44.050781 41.671875 L 46.675781 51.5 L 46.675781 51.566406 L 52 71.183594 C 52.039062 71.285156 52.097656 71.421875 52.152344 71.554688 L 53.964844 78.339844 C 53.550781 78.5625 53.175781 78.832031 52.832031 79.15625 C 52.492188 79.480469 52.199219 79.84375 51.957031 80.246094 C 51.714844 80.648438 51.527344 81.074219 51.402344 81.527344 C 51.273438 81.980469 51.207031 82.441406 51.203125 82.914062 L 51.203125 84.015625 L 51.335938 84.015625 C 51.453125 84.601562 51.664062 85.144531 51.96875 85.65625 C 52.273438 86.164062 52.65625 86.609375 53.117188 86.984375 C 53.574219 87.363281 54.082031 87.648438 54.640625 87.847656 C 55.199219 88.050781 55.777344 88.148438 56.371094 88.148438 C 56.714844 88.148438 57.054688 88.117188 57.394531 88.050781 C 57.730469 87.984375 58.058594 87.882812 58.378906 87.753906 C 58.695312 87.621094 59 87.460938 59.285156 87.269531 C 59.574219 87.078125 59.839844 86.863281 60.082031 86.621094 C 60.328125 86.378906 60.546875 86.113281 60.738281 85.828125 C 60.933594 85.542969 61.097656 85.238281 61.230469 84.921875 C 61.363281 84.605469 61.464844 84.277344 61.535156 83.9375 C 61.605469 83.601562 61.644531 83.257812 61.648438 82.914062 C 61.617188 81.777344 61.269531 80.75 60.59375 79.835938 L 75.074219 79.835938 C 74.398438 80.75 74.046875 81.777344 74.019531 82.914062 C 74.023438 83.257812 74.058594 83.601562 74.128906 83.9375 C 74.199219 84.277344 74.300781 84.605469 74.4375 84.921875 C 74.570312 85.242188 74.734375 85.542969 74.925781 85.828125 C 75.121094 86.113281 75.339844 86.378906 75.582031 86.621094 C 75.828125 86.863281 76.09375 87.082031 76.382812 87.269531 C 76.667969 87.460938 76.972656 87.621094 77.289062 87.753906 C 77.609375 87.882812 77.9375 87.984375 78.273438 88.050781 C 78.613281 88.117188 78.953125 88.148438 79.296875 88.148438 C 79.890625 88.148438 80.46875 88.050781 81.027344 87.851562 C 81.585938 87.652344 82.097656 87.363281 82.554688 86.984375 C 83.015625 86.609375 83.398438 86.164062 83.703125 85.65625 C 84.007812 85.144531 84.21875 84.597656 84.335938 84.015625 L 84.464844 84.015625 L 84.464844 82.910156 C 84.46875 82.570312 84.4375 82.230469 84.375 81.894531 C 84.308594 81.558594 84.214844 81.230469 84.085938 80.914062 C 83.957031 80.597656 83.796875 80.296875 83.609375 80.011719 C 83.421875 79.726562 83.210938 79.460938 82.96875 79.21875 C 82.730469 78.976562 82.46875 78.757812 82.183594 78.566406 C 81.902344 78.375 81.601562 78.214844 81.289062 78.082031 C 80.972656 77.949219 80.648438 77.851562 80.3125 77.78125 C 79.980469 77.714844 79.640625 77.679688 79.300781 77.679688 L 56.371094 77.679688 C 56.289062 77.679688 56.175781 77.710938 56.019531 77.722656 L 55.117188 74.351562 C 55.523438 74.5 55.941406 74.578125 56.371094 74.582031 Z M 56.371094 86.042969 C 55.964844 86.042969 55.570312 85.960938 55.191406 85.800781 C 54.816406 85.640625 54.484375 85.414062 54.195312 85.121094 C 53.90625 84.828125 53.6875 84.492188 53.53125 84.113281 C 53.375 83.734375 53.300781 83.335938 53.300781 82.925781 C 53.300781 82.515625 53.382812 82.121094 53.539062 81.742188 C 53.695312 81.363281 53.921875 81.03125 54.210938 80.738281 C 54.5 80.449219 54.832031 80.226562 55.210938 80.066406 C 55.589844 79.910156 55.984375 79.832031 56.394531 79.832031 C 56.800781 79.828125 57.195312 79.90625 57.574219 80.0625 C 57.953125 80.21875 58.289062 80.441406 58.582031 80.730469 C 58.871094 81.015625 59.097656 81.351562 59.257812 81.730469 C 59.414062 82.105469 59.496094 82.5 59.5 82.910156 C 59.511719 83.332031 59.441406 83.734375 59.285156 84.125 C 59.128906 84.515625 58.90625 84.859375 58.609375 85.152344 C 58.3125 85.449219 57.972656 85.675781 57.582031 85.832031 C 57.195312 85.988281 56.789062 86.058594 56.371094 86.050781 Z M 79.300781 86.042969 C 78.886719 86.054688 78.488281 85.988281 78.101562 85.839844 C 77.71875 85.691406 77.375 85.472656 77.074219 85.1875 C 76.777344 84.902344 76.542969 84.570312 76.378906 84.191406 C 76.210938 83.808594 76.125 83.414062 76.117188 83 C 76.109375 82.585938 76.179688 82.1875 76.332031 81.800781 C 76.484375 81.414062 76.703125 81.074219 76.988281 80.777344 C 77.277344 80.480469 77.609375 80.25 77.988281 80.085938 C 78.371094 79.921875 78.765625 79.835938 79.179688 79.832031 C 79.59375 79.828125 79.988281 79.902344 80.375 80.054688 C 80.757812 80.210938 81.09375 80.433594 81.390625 80.722656 C 81.683594 81.015625 81.910156 81.351562 82.070312 81.730469 C 82.234375 82.113281 82.3125 82.511719 82.316406 82.925781 C 82.324219 83.335938 82.253906 83.726562 82.105469 84.109375 C 81.957031 84.488281 81.742188 84.824219 81.460938 85.121094 C 81.175781 85.414062 80.847656 85.640625 80.472656 85.800781 C 80.097656 85.960938 79.707031 86.046875 79.300781 86.050781 Z M 79.300781 86.042969 " fill-opacity="1" fill-rule="nonzero"/></g></svg>