<?xml version="1.0" encoding="UTF-8"?><svg xmlns="http://www.w3.org/2000/svg" xmlns:xlink="http://www.w3.org/1999/xlink" width="127.5" zoomAndPan="magnify" viewBox="0 0 127.5 127.499994" height="127.499994" preserveAspectRatio="xMidYMid meet" version="1.0"><defs><filter x="0%" y="0%" width="100%" xmlns:xlink="http://www.w3.org/1999/xlink" xlink:type="simple" xlink:actuate="onLoad" height="100%" id="filter-remove-color" xlink:show="other"><feColorMatrix values="0 0 0 0 1 0 0 0 0 1 0 0 0 0 1 0 0 0 1 0" color-interpolation-filters="sRGB"/></filter><mask id="mask-0"><g filter="url(#filter-remove-color)"><rect x="-12.75" width="153" fill="rgb(0%, 0%, 0%)" y="-12.749999" height="152.999993" fill-opacity="0.149"/></g></mask><clipPath id="clip-0"><path d="M 0 0 L 127 0 L 127 127 L 0 127 Z M 0 0 " clip-rule="nonzero"/></clipPath><clipPath id="clip-1"><rect x="0" width="127" y="0" height="127"/></clipPath><clipPath id="clip-2"><path d="M 38.25 39.460938 L 89.25 39.460938 L 89.25 88.210938 L 38.25 88.210938 Z M 38.25 39.460938 " clip-rule="nonzero"/></clipPath></defs><g mask="url(#mask-0)"><g transform="matrix(1, 0, 0, 1, 0, 0.000000000000007293)"><g id="source-5" clip-path="url(#clip-1)"><g clip-path="url(#clip-0)"><path fill="rgb(100%, 87.059021%, 34.899902%)" d="M 63.75 0 C 28.542969 0 0 28.542969 0 63.75 C 0 98.957031 28.542969 127.5 63.75 127.5 C 98.957031 127.5 127.5 98.957031 127.5 63.75 C 127.5 28.542969 98.957031 0 63.75 0 Z M 63.75 0 " fill-opacity="1" fill-rule="nonzero"/></g></g></g></g><g clip-path="url(#clip-2)"><path fill="rgb(100%, 87.059021%, 34.899902%)" d="M 63.816406 39.628906 L 71.671875 55.613281 L 89.25 58.175781 L 76.527344 70.628906 L 79.539062 88.199219 L 63.816406 79.902344 L 48.082031 88.199219 L 51.082031 70.628906 L 38.371094 58.175781 L 55.949219 55.613281 Z M 63.816406 39.628906 " fill-opacity="1" fill-rule="nonzero"/><path fill="rgb(100%, 87.059021%, 34.899902%)" d="M 63.695312 39.476562 L 71.5625 55.460938 L 89.136719 58.023438 L 76.417969 70.476562 L 79.417969 88.042969 L 63.695312 79.75 L 47.96875 88.042969 L 50.972656 70.476562 L 38.25 58.023438 L 55.828125 55.460938 Z M 63.695312 39.476562 " fill-opacity="1" fill-rule="nonzero"/><path fill="rgb(100%, 87.059021%, 34.899902%)" d="M 63.695312 39.476562 L 71.5625 55.460938 L 89.136719 58.023438 L 76.417969 70.476562 L 79.417969 88.042969 L 63.695312 79.75 L 47.96875 88.042969 L 50.972656 70.476562 L 38.25 58.023438 L 55.828125 55.460938 Z M 63.695312 39.476562 " fill-opacity="1" fill-rule="nonzero"/><path fill="rgb(100%, 87.059021%, 34.899902%)" d="M 63.695312 39.476562 L 71.5625 55.460938 L 89.136719 58.023438 L 76.417969 70.476562 L 79.417969 88.042969 L 63.695312 79.75 L 47.96875 88.042969 L 50.972656 70.476562 L 38.25 58.023438 L 55.828125 55.460938 Z M 63.695312 39.476562 " fill-opacity="1" fill-rule="nonzero"/></g></svg>