<?xml version="1.0" encoding="UTF-8"?><svg xmlns="http://www.w3.org/2000/svg" xmlns:xlink="http://www.w3.org/1999/xlink" width="127.5" zoomAndPan="magnify" viewBox="0 0 127.5 127.499994" height="127.499994" preserveAspectRatio="xMidYMid meet" version="1.0"><defs><filter x="0%" y="0%" width="100%" xmlns:xlink="http://www.w3.org/1999/xlink" xlink:type="simple" xlink:actuate="onLoad" height="100%" id="filter-remove-color" xlink:show="other"><feColorMatrix values="0 0 0 0 1 0 0 0 0 1 0 0 0 0 1 0 0 0 1 0" color-interpolation-filters="sRGB"/></filter><mask id="mask-0"><g filter="url(#filter-remove-color)"><rect x="-12.75" width="153" fill="rgb(0%, 0%, 0%)" y="-12.749999" height="152.999993" fill-opacity="0.149"/></g></mask><clipPath id="clip-0"><path d="M 0 0 L 127 0 L 127 127 L 0 127 Z M 0 0 " clip-rule="nonzero"/></clipPath><clipPath id="clip-1"><rect x="0" width="127" y="0" height="127"/></clipPath><clipPath id="clip-2"><path d="M 38.25 46.363281 L 89.25 46.363281 L 89.25 80.863281 L 38.25 80.863281 Z M 38.25 46.363281 " clip-rule="nonzero"/></clipPath></defs><g mask="url(#mask-0)"><g transform="matrix(1, 0, 0, 1, 0, 0.000000000000007293)"><g id="source-5" clip-path="url(#clip-1)"><g clip-path="url(#clip-0)"><path fill="rgb(100%, 56.858826%, 30.198669%)" d="M 63.75 0 C 28.542969 0 0 28.542969 0 63.75 C 0 98.957031 28.542969 127.5 63.75 127.5 C 98.957031 127.5 127.5 98.957031 127.5 63.75 C 127.5 28.542969 98.957031 0 63.75 0 Z M 63.75 0 " fill-opacity="1" fill-rule="nonzero"/></g></g></g></g><g clip-path="url(#clip-2)"><path fill="rgb(100%, 56.858826%, 30.198669%)" d="M 63.75 46.363281 C 52.160156 46.363281 42.261719 53.515625 38.253906 63.613281 C 42.261719 73.710938 52.160156 80.863281 63.75 80.863281 C 75.339844 80.863281 85.238281 73.710938 89.246094 63.613281 C 85.238281 53.515625 75.351562 46.363281 63.75 46.363281 Z M 63.75 75.113281 C 57.351562 75.113281 52.160156 69.960938 52.160156 63.613281 C 52.160156 57.265625 57.351562 52.113281 63.75 52.113281 C 70.148438 52.113281 75.339844 57.265625 75.339844 63.613281 C 75.339844 69.960938 70.148438 75.113281 63.75 75.113281 Z M 63.75 56.714844 C 59.914062 56.714844 56.796875 59.808594 56.796875 63.613281 C 56.796875 67.421875 59.914062 70.511719 63.75 70.511719 C 67.585938 70.511719 70.703125 67.421875 70.703125 63.613281 C 70.703125 59.808594 67.585938 56.714844 63.75 56.714844 Z M 63.75 56.714844 " fill-opacity="1" fill-rule="nonzero"/></g></svg>