<?xml version="1.0" encoding="UTF-8"?><svg xmlns="http://www.w3.org/2000/svg" xmlns:xlink="http://www.w3.org/1999/xlink" width="127.5" zoomAndPan="magnify" viewBox="0 0 127.5 127.499994" height="127.499994" preserveAspectRatio="xMidYMid meet" version="1.0"><defs><filter x="0%" y="0%" width="100%" xmlns:xlink="http://www.w3.org/1999/xlink" xlink:type="simple" xlink:actuate="onLoad" height="100%" id="filter-remove-color" xlink:show="other"><feColorMatrix values="0 0 0 0 1 0 0 0 0 1 0 0 0 0 1 0 0 0 1 0" color-interpolation-filters="sRGB"/></filter><mask id="mask-0"><g filter="url(#filter-remove-color)"><rect x="-12.75" width="153" fill="rgb(0%, 0%, 0%)" y="-12.749999" height="152.999993" fill-opacity="0.149"/></g></mask><clipPath id="clip-0"><path d="M 0 0 L 127 0 L 127 127 L 0 127 Z M 0 0 " clip-rule="nonzero"/></clipPath><clipPath id="clip-1"><rect x="0" width="127" y="0" height="127"/></clipPath><clipPath id="clip-2"><path d="M 38.25 44.179688 L 70 44.179688 L 70 89.101562 L 38.25 89.101562 Z M 38.25 44.179688 " clip-rule="nonzero"/></clipPath><clipPath id="clip-3"><path d="M 62.425781 81.019531 L 70 81.019531 L 70 89.101562 L 62.425781 89.101562 Z M 62.425781 81.019531 " clip-rule="nonzero"/></clipPath><clipPath id="clip-4"><path d="M 58 38.25 L 89 38.25 L 89 69 L 58 69 Z M 58 38.25 " clip-rule="nonzero"/></clipPath></defs><g mask="url(#mask-0)"><g transform="matrix(1, 0, 0, 1, 0, 0.000000000000007293)"><g id="source-5" clip-path="url(#clip-1)"><g clip-path="url(#clip-0)"><path fill="rgb(79.60968%, 42.349243%, 90.19928%)" d="M 63.75 0 C 28.542969 0 0 28.542969 0 63.75 C 0 98.957031 28.542969 127.5 63.75 127.5 C 98.957031 127.5 127.5 98.957031 127.5 63.75 C 127.5 28.542969 98.957031 0 63.75 0 Z M 63.75 0 " fill-opacity="1" fill-rule="nonzero"/></g></g></g></g><g clip-path="url(#clip-2)"><path fill="rgb(79.60968%, 42.349243%, 90.19928%)" d="M 51.976562 75.375 L 44.585938 75.375 C 44 75.375 43.53125 74.902344 43.53125 74.316406 C 43.53125 73.734375 44 73.261719 44.585938 73.261719 L 51.976562 73.261719 C 52.558594 73.261719 53.03125 73.734375 53.03125 74.316406 C 53.03125 74.902344 52.558594 75.375 51.976562 75.375 Z M 66.292969 68.710938 L 59.769531 70.527344 C 59.5625 70.585938 59.351562 70.617188 59.132812 70.613281 C 58.390625 70.613281 57.695312 70.265625 57.246094 69.671875 C 57.097656 69.484375 56.984375 69.269531 56.910156 69.039062 L 44.585938 69.039062 C 44 69.039062 43.53125 68.566406 43.53125 67.980469 C 43.53125 67.402344 44 66.929688 44.585938 66.929688 L 57.035156 66.929688 L 58.207031 62.703125 L 44.585938 62.703125 C 44 62.703125 43.53125 62.230469 43.53125 61.648438 C 43.53125 61.066406 44 60.59375 44.585938 60.59375 L 58.851562 60.59375 C 59 60.25 59.210938 59.945312 59.472656 59.683594 L 62.789062 56.371094 L 44.585938 56.371094 C 44 56.371094 43.53125 55.898438 43.53125 55.3125 C 43.53125 54.730469 44 54.257812 44.585938 54.257812 L 64.898438 54.257812 L 69.925781 49.230469 L 69.925781 45.8125 C 69.945312 45.246094 69.5 44.773438 68.933594 44.753906 L 39.242188 44.753906 C 38.675781 44.773438 38.230469 45.246094 38.25 45.8125 L 38.25 88.042969 C 38.230469 88.609375 38.675781 89.082031 39.242188 89.101562 L 60.425781 89.101562 L 60.425781 82.761719 C 60.429688 81.019531 61.839844 79.601562 63.589844 79.597656 L 69.925781 79.597656 L 69.925781 65.660156 L 67.6875 67.902344 C 67.300781 68.289062 66.824219 68.566406 66.292969 68.710938 " fill-opacity="1" fill-rule="nonzero"/></g><g clip-path="url(#clip-3)"><path fill="rgb(79.60968%, 42.349243%, 90.19928%)" d="M 63.589844 81.710938 C 63.011719 81.710938 62.539062 82.183594 62.535156 82.761719 L 62.535156 89.101562 L 69.925781 81.710938 L 63.589844 81.710938 " fill-opacity="1" fill-rule="nonzero"/></g><g clip-path="url(#clip-4)"><path fill="rgb(79.60968%, 42.349243%, 90.19928%)" d="M 88.015625 39.644531 C 87.308594 38.863281 86.304688 38.417969 85.257812 38.417969 C 84.277344 38.417969 83.335938 38.808594 82.648438 39.507812 L 69.925781 52.21875 L 66.746094 55.398438 L 65.785156 56.355469 L 60.960938 61.183594 C 60.835938 61.3125 60.738281 61.46875 60.699219 61.648438 L 59.125 67.308594 L 58.882812 68.175781 C 58.84375 68.308594 58.921875 68.453125 59.058594 68.488281 C 59.085938 68.5 59.113281 68.503906 59.132812 68.5 C 59.160156 68.503906 59.183594 68.5 59.210938 68.488281 L 59.242188 68.480469 L 65.734375 66.671875 C 65.90625 66.628906 66.0625 66.539062 66.191406 66.414062 L 69.925781 62.671875 L 87.726562 44.871094 C 89.179688 43.472656 89.304688 41.191406 88.015625 39.644531 " fill-opacity="1" fill-rule="nonzero"/></g></svg>