<?xml version="1.0" encoding="UTF-8"?><svg xmlns="http://www.w3.org/2000/svg" xmlns:xlink="http://www.w3.org/1999/xlink" width="127.5" zoomAndPan="magnify" viewBox="0 0 127.5 127.499994" height="127.499994" preserveAspectRatio="xMidYMid meet" version="1.0"><defs><filter x="0%" y="0%" width="100%" xmlns:xlink="http://www.w3.org/1999/xlink" xlink:type="simple" xlink:actuate="onLoad" height="100%" id="filter-remove-color" xlink:show="other"><feColorMatrix values="0 0 0 0 1 0 0 0 0 1 0 0 0 0 1 0 0 0 1 0" color-interpolation-filters="sRGB"/></filter><mask id="mask-0"><g filter="url(#filter-remove-color)"><rect x="-12.75" width="153" fill="rgb(0%, 0%, 0%)" y="-12.749999" height="152.999993" fill-opacity="0.149"/></g></mask><clipPath id="clip-0"><path d="M 0 0 L 127 0 L 127 127 L 0 127 Z M 0 0 " clip-rule="nonzero"/></clipPath><clipPath id="clip-1"><rect x="0" width="127" y="0" height="127"/></clipPath><clipPath id="clip-2"><path d="M 38.25 61 L 89.25 61 L 89.25 85.367188 L 38.25 85.367188 Z M 38.25 61 " clip-rule="nonzero"/></clipPath><clipPath id="clip-3"><path d="M 38.25 49 L 89.25 49 L 89.25 59 L 38.25 59 Z M 38.25 49 " clip-rule="nonzero"/></clipPath></defs><g mask="url(#mask-0)"><g transform="matrix(1, 0, 0, 1, 0, 0.000000000000007293)"><g id="source-5" clip-path="url(#clip-1)"><g clip-path="url(#clip-0)"><path fill="rgb(1.179504%, 59.609985%, 61.959839%)" d="M 63.75 0 C 28.542969 0 0 28.542969 0 63.75 C 0 98.957031 28.542969 127.5 63.75 127.5 C 98.957031 127.5 127.5 98.957031 127.5 63.75 C 127.5 28.542969 98.957031 0 63.75 0 Z M 63.75 0 " fill-opacity="1" fill-rule="nonzero"/></g></g></g></g><g clip-path="url(#clip-2)"><path fill="rgb(1.179504%, 59.609985%, 61.959839%)" d="M 38.25 61.609375 L 38.25 76.398438 C 38.25 81.054688 42.066406 85.269531 46.75 85.269531 L 80.75 85.269531 C 85.4375 85.269531 89.25 81.054688 89.25 76.398438 L 89.25 61.609375 Z M 45.050781 68.371094 L 53.550781 68.371094 L 53.550781 70.058594 L 45.050781 70.058594 Z M 62.050781 75.128906 L 45.050781 75.128906 L 45.050781 71.75 L 62.050781 71.75 Z M 62.050781 75.128906 " fill-opacity="1" fill-rule="nonzero"/></g><g clip-path="url(#clip-3)"><path fill="rgb(1.179504%, 59.609985%, 61.959839%)" d="M 80.75 49.78125 L 46.75 49.78125 C 42.066406 49.78125 38.25 53.160156 38.25 58.230469 L 89.25 58.230469 C 89.25 53.160156 85.4375 49.78125 80.75 49.78125 Z M 80.75 49.78125 " fill-opacity="1" fill-rule="nonzero"/></g></svg>